<?xml version="1.0" encoding="UTF-8" standalone="no"?>
<svg xmlns="http://www.w3.org/2000/svg" width="512" height="512" viewBox="0 0 512 512">
  <defs>
    <radialGradient id="flash" cx="50%" cy="50%" r="50%" fx="50%" fy="50%">
      <stop offset="0%" style="stop-color:rgb(255,255,200);stop-opacity:1" />
      <stop offset="50%" style="stop-color:rgb(255,200,0);stop-opacity:0.8" />
      <stop offset="100%" style="stop-color:rgb(255,100,0);stop-opacity:0" />
    </radialGradient>
  </defs>
  
  <!-- Center burst -->
  <circle cx="256" cy="256" r="128" fill="url(#flash)" />
  
  <!-- Rays -->
  <g transform="translate(256,256)">
    <!-- Main rays -->
    <path d="M0,-200 L40,-40 L-40,-40 Z" fill="rgb(255,255,200)" opacity="0.9" />
    <path d="M0,200 L40,40 L-40,40 Z" fill="rgb(255,255,200)" opacity="0.9" />
    <path d="M-200,0 L-40,40 L-40,-40 Z" fill="rgb(255,255,200)" opacity="0.9" />
    <path d="M200,0 L40,40 L40,-40 Z" fill="rgb(255,255,200)" opacity="0.9" />
    
    <!-- Diagonal rays -->
    <path d="M-141,-141 L-28,-28 L-48,0 Z" fill="rgb(255,255,200)" opacity="0.7" />
    <path d="M141,-141 L28,-28 L0,-48 Z" fill="rgb(255,255,200)" opacity="0.7" />
    <path d="M-141,141 L-28,28 L0,48 Z" fill="rgb(255,255,200)" opacity="0.7" />
    <path d="M141,141 L28,28 L48,0 Z" fill="rgb(255,255,200)" opacity="0.7" />
  </g>
  
  <!-- Outer glow -->
  <circle cx="256" cy="256" r="250" fill="none" stroke="rgb(255,200,0)" stroke-width="2" opacity="0.5" />
</svg>
